<svg width="37" height="43" viewBox="0 0 37 43" fill="none" xmlns="http://www.w3.org/2000/svg">
    <path d="M33.3015 1.33161C33.071 0.775264 32.626 0.349605 32.0788 0.162074L32.0748 0.160735L32.0709 0.159396L32.0629 0.156697L32.0461 0.151172L32.0102 0.139888C31.9851 0.132238 31.9579 0.124439 31.9286 0.116598C31.8699 0.100916 31.8028 0.0851484 31.7273 0.0705284C31.576 0.0412459 31.3922 0.0167234 31.1755 0.00592835C30.7403 -0.0157466 30.1829 0.018232 29.4986 0.171147C28.3575 0.426126 26.8762 1.00861 25.0164 2.20216C24.8948 2.28017 24.7716 2.36079 24.6468 2.44409C24.5219 2.41317 24.3969 2.38329 24.2718 2.3545C20.8805 1.57426 17.3702 1.57426 13.9788 2.3545C13.8536 2.38331 13.7285 2.41317 13.6037 2.44411C13.4788 2.36079 13.3556 2.28017 13.234 2.20216C11.3722 1.00799 9.88744 0.425616 8.74343 0.170828C8.05756 0.0181046 7.49894 -0.0156829 7.06351 0.00590707C6.84646 0.0166596 6.66265 0.0410334 6.5116 0.0701034C6.43621 0.0846171 6.36931 0.100236 6.31089 0.115749C6.2817 0.123505 6.25465 0.13124 6.22972 0.138783L6.19398 0.14994L6.17734 0.155359L6.16931 0.158036L6.16537 0.159353L6.16149 0.160671C5.60956 0.348436 5.16114 0.778238 4.93105 1.34005C4.07397 3.43272 3.84647 5.74035 4.25925 7.954C4.27931 8.06155 4.30088 8.16888 4.32396 8.27598C4.23547 8.40168 4.14949 8.52907 4.06605 8.65808C2.77889 10.6481 2.09426 13.0218 2.12635 15.4592C2.12943 20.6794 3.65426 24.2545 6.23306 26.5551C7.6928 27.8573 9.38704 28.6544 11.0898 29.1567C11.2846 29.2143 11.4796 29.2678 11.6744 29.318C11.6459 29.4168 11.6194 29.5165 11.5949 29.6168C11.4918 30.0384 11.4234 30.4712 11.3918 30.9105C11.3889 30.9502 11.3871 30.9899 11.3864 31.0297L11.3143 34.8946L11.3139 34.9365C11.3139 34.9486 11.3139 34.9607 11.3139 34.9726C11.1831 35.0051 11.0501 35.0291 10.9157 35.0447C10.5018 35.0925 10.0824 35.0576 9.68172 34.9422C9.28099 34.8268 8.90645 34.633 8.57974 34.3717C8.25302 34.1103 7.98051 33.7862 7.77816 33.418L7.75732 33.381C7.20027 32.4137 6.43083 31.5858 5.50677 30.9602C4.5827 30.3344 3.52836 29.9276 2.42351 29.771C1.26151 29.6063 0.186008 30.4147 0.0212994 31.5769C-0.143409 32.7388 0.665047 33.8143 1.82704 33.979C2.2911 34.0448 2.73463 34.2157 3.12401 34.4794C3.50883 34.7399 3.83089 35.0844 4.06598 35.4875C4.53603 36.3358 5.16726 37.0842 5.92453 37.6901C6.68851 38.3014 7.56569 38.7555 8.50579 39.0263C9.42115 39.2898 10.3783 39.3743 11.3252 39.2753C11.3271 39.7851 11.3284 40.1763 11.3284 40.375C11.3284 41.5486 12.2298 42.5 13.3418 42.5H24.9811C26.0929 42.5 26.9943 41.5486 26.9943 40.375V32.3202C27.0491 31.4079 26.9556 30.4935 26.7193 29.6168C26.6868 29.4961 26.6515 29.376 26.6137 29.2568C26.7406 29.2251 26.8674 29.1918 26.9943 29.1567C28.7464 28.6741 30.4965 27.8851 32 26.5589C34.5931 24.2711 36.1212 20.693 36.1242 15.4592C36.1562 13.0218 35.4716 10.6481 34.1845 8.65808C34.1009 8.52886 34.0149 8.40127 33.9261 8.27537C33.949 8.16848 33.9705 8.06136 33.9904 7.954C34.4023 5.7361 34.1689 3.42427 33.3015 1.33161Z" fill="#323232"/>
</svg>
