<svg width="52" height="30" viewBox="0 0 52 30" fill="none" xmlns="http://www.w3.org/2000/svg">
    <path d="M31.0456 14.344C30.1081 13.9915 30.1081 12.6452 30.05 11.7077C29.8156 8.36836 30.9875 3.27023 29.5813 1.10273C28.5856 -0.187267 23.78 -0.0691418 20.8513 0.107108C20.03 0.225233 19.0344 0.39961 18.3313 0.75211C17.6281 1.10461 16.925 1.68961 16.925 2.21648C16.925 2.97773 18.6838 2.86148 19.3269 3.85711C20.03 4.91273 20.03 7.19648 20.03 9.07148C20.03 11.239 19.6775 14.1115 18.8 14.2277C17.4519 14.2859 16.6906 12.9377 15.9875 11.9421C14.5813 10.009 13.175 7.60523 12.1194 5.26148C11.5925 4.03148 11.2981 2.68336 10.5369 2.15648C9.36502 1.33523 7.25564 1.27711 5.20439 1.33523C3.32939 1.39336 0.633144 1.15898 0.106269 2.27273C-0.304356 3.50273 0.575019 4.67461 1.04377 5.67211C3.44564 10.8865 6.02377 15.4577 9.18877 19.7927C12.1194 23.8352 14.8719 27.0584 20.2625 28.7571C21.7869 29.2259 28.4656 30.574 29.8138 28.7571C30.2825 28.054 30.1663 26.4715 30.4006 25.2996C30.635 24.1277 30.9275 22.9559 32.0413 22.8977C32.9788 22.8396 33.5056 23.659 34.0925 24.2459C34.7375 24.8909 35.2644 25.4177 35.7331 26.0046C36.8469 27.1184 38.0188 28.6409 39.425 29.2277C41.3581 30.049 44.3469 29.8146 47.1594 29.6965C49.445 29.6384 51.0856 29.1696 51.2619 27.8215C51.38 26.7659 50.2063 25.2434 49.5031 24.364C47.7444 22.1965 46.925 21.5515 44.9319 19.5584C44.0525 18.679 42.9388 17.7415 42.9388 16.6877C42.8806 16.0427 43.4075 15.4577 43.8763 14.8127C45.9275 11.7659 47.9788 9.59836 49.8538 6.43336C50.3806 5.49586 51.6125 3.32836 51.1438 2.27273C50.6169 1.10086 47.6863 1.45148 45.8694 1.45148C43.5256 1.45148 40.4788 1.27523 39.8919 1.74398C38.7781 2.50523 38.3094 3.73711 37.7825 4.90898C36.6106 7.60523 35.0281 10.3577 33.3875 12.409C32.8006 13.1121 31.6888 14.5765 31.0438 14.3421L31.0456 14.344Z" fill="black"/>
</svg>
